<svg width="116" height="116" viewBox="0 0 116 116" fill="none" xmlns="http://www.w3.org/2000/svg">
<g clip-path="url(#clip0_291_1855)">
<path d="M108.75 44.225L98.6 23.2C95.7 18.125 90.625 14.5 84.825 14.5H31.175C25.375 14.5 20.3 18.125 17.4 23.2L7.25 44.225C2.9 44.95 0 48.575 0 52.2V77.575C0 81.925 2.9 85.55 7.25 86.275V100.775C7.25 105.125 10.875 108.75 15.225 108.75H21.75C25.375 108.75 29 105.125 29 100.775V87H87V100.775C87 105.125 90.625 108.75 94.975 108.75H101.5C105.85 108.75 109.475 105.125 109.475 100.775V86.275C113.825 85.55 116.725 81.925 116.725 77.575V52.2C116 48.575 113.1 44.95 108.75 44.225ZM29 60.9C29 63.075 26.825 65.25 24.65 65.25H11.6C9.425 65.25 7.25 63.075 7.25 60.9V55.1C7.25 52.925 9.425 50.75 11.6 50.75H24.65C26.825 50.75 29 52.925 29 55.1V60.9ZM72.5 79.75H43.5V72.5H72.5V79.75ZM15.225 43.5L23.925 26.1C25.375 23.2 28.275 21.75 31.175 21.75H84.825C87.725 21.75 90.625 23.2 92.075 26.1L100.775 43.5H15.225ZM108.75 60.9C108.75 63.075 106.575 65.25 104.4 65.25H91.35C89.175 65.25 87 63.075 87 60.9V55.1C87 52.925 89.175 50.75 91.35 50.75H104.4C106.575 50.75 108.75 52.925 108.75 55.1V60.9Z" fill="white" fill-opacity="0.43"/>
</g>
<defs>
<clipPath id="clip0_291_1855">
<rect width="116" height="116" fill="white"/>
</clipPath>
</defs>
</svg>
