<svg width="113" height="113" viewBox="0 0 113 113" fill="none" xmlns="http://www.w3.org/2000/svg">
<g clip-path="url(#clip0_291_1861)">
<path d="M105.937 43.0812L96.05 22.6C93.225 17.6563 88.2812 14.125 82.6312 14.125H30.3687C24.7188 14.125 19.775 17.6563 16.95 22.6L7.0625 43.0812C2.825 43.7875 0 47.3187 0 50.85V75.5687C0 79.8063 2.825 83.3375 7.0625 84.0437V98.1687C7.0625 102.406 10.5937 105.938 14.8312 105.938H21.1875C24.7187 105.938 28.25 102.406 28.25 98.1687V84.75H84.75V98.1687C84.75 102.406 88.2812 105.938 92.5187 105.938H98.875C103.112 105.938 106.644 102.406 106.644 98.1687V84.0437C110.881 83.3375 113.706 79.8063 113.706 75.5687V50.85C113 47.3187 110.175 43.7875 105.937 43.0812ZM28.25 59.325C28.25 61.4437 26.1312 63.5625 24.0125 63.5625H11.3C9.18125 63.5625 7.0625 61.4437 7.0625 59.325V53.675C7.0625 51.5562 9.18125 49.4375 11.3 49.4375H24.0125C26.1312 49.4375 28.25 51.5562 28.25 53.675V59.325ZM70.625 77.6875H42.375V70.625H70.625V77.6875ZM14.8312 42.375L23.3062 25.425C24.7187 22.6 27.5437 21.1875 30.3687 21.1875H82.6312C85.4562 21.1875 88.2812 22.6 89.6937 25.425L98.1687 42.375H14.8312ZM105.937 59.325C105.937 61.4437 103.819 63.5625 101.7 63.5625H88.9875C86.8687 63.5625 84.75 61.4437 84.75 59.325V53.675C84.75 51.5562 86.8687 49.4375 88.9875 49.4375H101.7C103.819 49.4375 105.937 51.5562 105.937 53.675V59.325Z" fill="white" fill-opacity="0.43"/>
</g>
<defs>
<clipPath id="clip0_291_1861">
<rect width="113" height="113" fill="white"/>
</clipPath>
</defs>
</svg>
