<svg width="116" height="116" viewBox="0 0 116 116" fill="none" xmlns="http://www.w3.org/2000/svg">
<path d="M58 4.75781C43.8793 4.75781 30.3369 10.3672 20.3521 20.3521C10.3672 30.3369 4.75781 43.8793 4.75781 58C4.75781 72.1207 10.3672 85.6631 20.3521 95.6479C30.3369 105.633 43.8793 111.242 58 111.242C64.9919 111.242 71.9153 109.865 78.3749 107.189C84.8345 104.514 90.7039 100.592 95.6479 95.6479C100.592 90.7039 104.514 84.8345 107.189 78.3749C109.865 71.9153 111.242 64.9919 111.242 58C111.242 51.0081 109.865 44.0847 107.189 37.6251C104.514 31.1655 100.592 25.2961 95.6479 20.3521C90.7039 15.4081 84.8345 11.4863 78.3749 8.81063C71.9153 6.13496 64.9919 4.75781 58 4.75781ZM58 23.3359C77.1203 23.3359 92.6641 38.8797 92.6641 58C92.6641 77.1203 77.1203 92.6641 58 92.6641C38.8797 92.6641 23.3359 77.1203 23.3359 58C23.3359 38.8797 38.8797 23.3359 58 23.3359ZM58 27.4141C53.3743 27.4141 48.9926 28.4381 45.0655 30.2692C47.6817 37.7186 52.1588 47.125 58 47.125C63.8505 47.125 68.1786 37.6887 70.8579 30.2336C66.9504 28.425 62.5956 27.4141 58 27.4141ZM80.3735 37.1291C74.0946 41.9193 66.521 49.0893 68.3272 54.6485C70.1354 60.2137 80.4501 61.4132 88.3687 61.6574C88.5109 60.458 88.5859 59.2382 88.5859 58C88.5859 49.9249 85.4696 42.591 80.3735 37.1291ZM35.5755 37.1841C30.5096 42.64 27.4141 49.9518 27.4141 58C27.4141 59.2574 27.4911 60.4963 27.6379 61.7134C35.5298 61.5264 45.8492 60.1743 47.6533 54.622C49.46 49.0617 41.8352 42.0357 35.5755 37.1841ZM51.4775 47.072C51.0668 47.0835 50.6692 47.2189 50.3368 47.4603C49.8994 47.7782 49.6061 48.2568 49.5216 48.7909C49.437 49.325 49.5681 49.8707 49.8859 50.3082C50.2037 50.7457 50.6823 51.0391 51.2163 51.1237C51.7504 51.2084 52.2962 51.0775 52.7338 50.7597C52.9505 50.6024 53.134 50.4038 53.274 50.1755C53.4139 49.9472 53.5075 49.6936 53.5494 49.4291C53.5913 49.1646 53.5807 48.8944 53.5182 48.634C53.4557 48.3736 53.3425 48.128 53.1851 47.9114C52.9902 47.6432 52.7328 47.4266 52.4352 47.2803C52.1377 47.134 51.8089 47.0625 51.4775 47.072ZM64.5225 47.072C64.4744 47.0706 64.4263 47.0709 64.3782 47.0729C64.0713 47.0859 63.7713 47.168 63.5006 47.3131C63.2299 47.4583 62.9955 47.6627 62.8149 47.9112C62.6575 48.1278 62.5442 48.3734 62.4817 48.6338C62.4192 48.8942 62.4086 49.1644 62.4505 49.4289C62.4924 49.6935 62.586 49.9472 62.726 50.1755C62.8659 50.4038 63.0495 50.6024 63.2662 50.7597C63.7037 51.0775 64.2495 51.2085 64.7836 51.1238C65.3177 51.0392 65.7963 50.7459 66.1141 50.3084C66.4319 49.871 66.563 49.3252 66.4784 48.7911C66.3939 48.2571 66.1006 47.7784 65.6632 47.4605C65.3308 47.219 64.9332 47.0836 64.5225 47.072ZM58 50.75C56.0772 50.75 54.2331 51.5138 52.8735 52.8735C51.5138 54.2331 50.75 56.0772 50.75 58C50.75 59.9228 51.5138 61.7669 52.8735 63.1265C54.2331 64.4862 56.0772 65.25 58 65.25C59.9228 65.25 61.7669 64.4862 63.1265 63.1265C64.4862 61.7669 65.25 59.9228 65.25 58C65.25 56.0772 64.4862 54.2331 63.1265 52.8735C61.7669 51.5138 59.9228 50.75 58 50.75ZM47.5108 59.3678C47.3067 59.3707 47.1042 59.4043 46.91 59.4674C46.6553 59.5502 46.4194 59.6822 46.2157 59.8561C46.012 60.03 45.8446 60.2423 45.723 60.4809C45.6014 60.7195 45.528 60.9797 45.507 61.2467C45.4859 61.5137 45.5177 61.7822 45.6005 62.0369C45.7676 62.5512 46.1322 62.978 46.614 63.2235C47.0958 63.469 47.6554 63.513 48.1697 63.346C48.4244 63.2633 48.6603 63.1312 48.8639 62.9573C49.0676 62.7834 49.235 62.5712 49.3566 62.3326C49.4782 62.094 49.5516 61.8338 49.5726 61.5669C49.5937 61.2999 49.5619 61.0314 49.4792 60.7768C49.3447 60.3624 49.0809 60.0021 48.7267 59.7486C48.3725 59.495 47.9464 59.3616 47.5108 59.3678ZM68.5485 59.3696C68.1032 59.3502 67.6638 59.4773 67.2976 59.7314C66.9314 59.9855 66.6585 60.3526 66.5208 60.7765C66.4381 61.0312 66.4063 61.2997 66.4274 61.5666C66.4484 61.8336 66.5218 62.0938 66.6434 62.3324C66.765 62.5709 66.9324 62.7832 67.1361 62.9571C67.3397 63.131 67.5756 63.263 67.8303 63.3457C68.3446 63.5128 68.9042 63.4688 69.386 63.2233C69.8678 62.9779 70.2324 62.5511 70.3995 62.0369C70.4823 61.7822 70.5141 61.5137 70.493 61.2467C70.472 60.9797 70.3986 60.7195 70.277 60.4809C70.1554 60.2423 69.988 60.03 69.7843 59.8561C69.5806 59.6822 69.3447 59.5502 69.09 59.4674C68.9148 59.4105 68.7326 59.3776 68.5485 59.3696ZM47.6724 65.6483C42.7809 65.6719 36.2899 69.4618 31.2638 72.882C35.5751 80.6232 43.1493 86.2863 52.14 88.0247C54.4033 80.4598 56.3132 70.2129 51.5858 66.7784C50.4861 65.9793 49.1532 65.641 47.6724 65.6483ZM68.2932 65.6528C66.8024 65.6528 65.463 65.9963 64.3632 66.7952C59.6292 70.2346 61.6755 80.4129 63.8902 88.0191C72.8818 86.2711 80.4537 80.5969 84.7566 72.8455C79.7708 69.3963 73.2166 65.6528 68.2932 65.6526V65.6528ZM58 66.9673C57.4592 66.9673 56.9406 67.1822 56.5582 67.5646C56.1758 67.947 55.9609 68.4656 55.9609 69.0064C55.9609 69.5472 56.1758 70.0658 56.5582 70.4482C56.9406 70.8306 57.4592 71.0455 58 71.0455C58.5408 71.0455 59.0594 70.8306 59.4418 70.4482C59.8242 70.0658 60.0391 69.5472 60.0391 69.0064C60.0391 68.4656 59.8242 67.947 59.4418 67.5646C59.0594 67.1822 58.5408 66.9673 58 66.9673Z" fill="white" fill-opacity="0.5"/>
</svg>
