<svg width="129" height="129" viewBox="0 0 129 129" fill="none" xmlns="http://www.w3.org/2000/svg">
<path d="M64.5 5.29102C48.7968 5.29102 33.7368 11.5291 22.6329 22.6329C11.5291 33.7368 5.29102 48.7968 5.29102 64.5C5.29102 80.2032 11.5291 95.2632 22.6329 106.367C33.7368 117.471 48.7968 123.709 64.5 123.709C72.2754 123.709 79.9747 122.177 87.1583 119.202C94.3419 116.226 100.869 111.865 106.367 106.367C111.865 100.869 116.226 94.3419 119.202 87.1583C122.177 79.9747 123.709 72.2754 123.709 64.5C123.709 56.7246 122.177 49.0253 119.202 41.8417C116.226 34.6581 111.865 28.131 106.367 22.6329C100.869 17.1349 94.3419 12.7736 87.1583 9.79803C79.9747 6.8225 72.2754 5.29102 64.5 5.29102ZM64.5 25.9512C85.7631 25.9512 103.049 43.2369 103.049 64.5C103.049 85.7631 85.7631 103.049 64.5 103.049C43.2369 103.049 25.9512 85.7631 25.9512 64.5C25.9512 43.2369 43.2369 25.9512 64.5 25.9512ZM64.5 30.4863C59.3559 30.4863 54.4831 31.6252 50.116 33.6614C53.0253 41.9457 58.0041 52.4062 64.5 52.4062C71.0062 52.4062 75.8193 41.9124 78.7989 33.6219C74.4534 31.6105 69.6106 30.4863 64.5 30.4863ZM89.3809 41.2901C82.3982 46.6171 73.976 54.5907 75.9845 60.7729C77.9954 66.9618 89.466 68.2957 98.272 68.5673C98.4303 67.2334 98.5137 65.8769 98.5137 64.5C98.5137 55.5199 95.0481 47.3642 89.3809 41.2901ZM39.5624 41.3513C33.9288 47.4186 30.4863 55.5499 30.4863 64.5C30.4863 65.8983 30.572 67.276 30.7353 68.6295C39.5115 68.4217 50.9875 66.918 52.9938 60.7434C55.0029 54.5599 46.5236 46.7466 39.5624 41.3513ZM57.2465 52.3473C56.7898 52.3602 56.3476 52.5107 55.9779 52.7791C55.4915 53.1327 55.1655 53.6649 55.0714 54.2588C54.9774 54.8528 55.1231 55.4597 55.4766 55.9462C55.83 56.4327 56.3622 56.7589 56.9561 56.8531C57.55 56.9473 58.157 56.8017 58.6436 56.4483C58.8846 56.2733 59.0887 56.0526 59.2443 55.7986C59.3999 55.5447 59.504 55.2627 59.5506 54.9685C59.5972 54.6744 59.5855 54.3739 59.5159 54.0843C59.4464 53.7948 59.3205 53.5217 59.1455 53.2808C58.9287 52.9825 58.6425 52.7416 58.3116 52.579C57.9807 52.4163 57.6151 52.3368 57.2465 52.3473ZM71.7535 52.3473C71.7 52.3457 71.6465 52.3461 71.593 52.3483C71.2517 52.3627 70.9181 52.454 70.6171 52.6155C70.316 52.7769 70.0554 53.0042 69.8545 53.2805C69.6794 53.5215 69.5535 53.7945 69.484 54.0841C69.4144 54.3738 69.4026 54.6742 69.4492 54.9684C69.4958 55.2626 69.5999 55.5447 69.7556 55.7986C69.9113 56.0525 70.1154 56.2733 70.3564 56.4483C70.8429 56.8017 71.4499 56.9473 72.0439 56.8532C72.6378 56.7591 73.17 56.4329 73.5234 55.9464C73.8769 55.46 74.0226 54.853 73.9286 54.2591C73.8345 53.6652 73.5085 53.1329 73.0221 52.7794C72.6524 52.5108 72.2102 52.3602 71.7535 52.3473ZM64.5 56.4375C62.3617 56.4375 60.311 57.2869 58.799 58.799C57.2869 60.311 56.4375 62.3617 56.4375 64.5C56.4375 66.6383 57.2869 68.689 58.799 70.201C60.311 71.7131 62.3617 72.5625 64.5 72.5625C66.6383 72.5625 68.689 71.7131 70.201 70.201C71.7131 68.689 72.5625 66.6383 72.5625 64.5C72.5625 62.3617 71.7131 60.311 70.201 58.799C68.689 57.2869 66.6383 56.4375 64.5 56.4375ZM52.8353 66.021C52.6083 66.0243 52.3831 66.0617 52.1671 66.1319C51.8839 66.2239 51.6215 66.3708 51.395 66.5641C51.1686 66.7575 50.9824 66.9936 50.8471 67.259C50.7119 67.5243 50.6303 67.8137 50.6069 68.1106C50.5835 68.4075 50.6188 68.7061 50.7109 68.9893C50.8967 69.5612 51.3021 70.0359 51.838 70.3089C52.3738 70.5819 52.9961 70.6309 53.568 70.4451C53.8512 70.3531 54.1136 70.2062 54.34 70.0129C54.5665 69.8195 54.7527 69.5834 54.8879 69.3181C55.0231 69.0528 55.1048 68.7635 55.1282 68.4666C55.1516 68.1697 55.1163 67.8712 55.0243 67.5879C54.8747 67.1272 54.5814 66.7265 54.1875 66.4445C53.7936 66.1625 53.3197 66.0141 52.8353 66.021ZM76.2307 66.0231C75.7355 66.0015 75.2468 66.1429 74.8396 66.4255C74.4323 66.708 74.1289 67.1163 73.9757 67.5877C73.8837 67.8709 73.8484 68.1695 73.8718 68.4663C73.8952 68.7632 73.9769 69.0526 74.1121 69.3179C74.2473 69.5832 74.4335 69.8193 74.66 70.0126C74.8864 70.206 75.1488 70.3529 75.432 70.4448C76.0039 70.6306 76.6262 70.5817 77.162 70.3087C77.6978 70.0358 78.1032 69.5612 78.2891 68.9893C78.3812 68.7061 78.4165 68.4075 78.3931 68.1106C78.3697 67.8137 78.2881 67.5243 78.1529 67.259C78.0176 66.9936 77.8315 66.7575 77.605 66.5641C77.3785 66.3708 77.1161 66.2239 76.8329 66.1319C76.638 66.0686 76.4354 66.032 76.2307 66.0231ZM53.015 73.0054C47.5753 73.0316 40.3568 77.2463 34.7675 81.0498C39.5619 89.6585 47.985 95.9564 57.9832 97.8896C60.5002 89.4769 62.6242 78.0815 57.367 74.2622C56.144 73.3735 54.6617 72.9974 53.015 73.0054ZM75.9467 73.0105C74.2889 73.0105 72.7993 73.3924 71.5764 74.2808C66.3118 78.1057 68.5874 89.4247 71.0503 97.8833C81.0495 95.9395 89.4701 89.6293 94.2552 81.0092C88.7107 77.1735 81.4219 73.0105 75.9467 73.0102V73.0105ZM64.5 74.4723C63.8986 74.4723 63.3218 74.7112 62.8966 75.1365C62.4713 75.5617 62.2324 76.1385 62.2324 76.7399C62.2324 77.3413 62.4713 77.9181 62.8966 78.3433C63.3218 78.7686 63.8986 79.0075 64.5 79.0075C65.1014 79.0075 65.6782 78.7686 66.1034 78.3433C66.5287 77.9181 66.7676 77.3413 66.7676 76.7399C66.7676 76.1385 66.5287 75.5617 66.1034 75.1365C65.6782 74.7112 65.1014 74.4723 64.5 74.4723Z" fill="white" fill-opacity="0.5"/>
</svg>
